<svg xmlns="http://www.w3.org/2000/svg" viewBox="0 0 1024 164">
  <defs/>
  <path fill="#fff" d="M77.56 20.85h28.6L66.5 71.91l46.67 76.34h-28.6L51.06 92.44 34.04 114.2v34.06H8.08v-36.18l69.48-91.23zM8 20.77h25.97v24.65L8 79.94V20.77zm292.6 62.66c6.13 0 10.69-1.88 13.7-5.63 3-3.75 4.5-8.69 4.5-14.82 0-6.13-1.59-11.01-4.78-14.63-3.19-3.63-7.79-5.44-13.79-5.44H250.7V20.77h49.53c30.02 0 45.03 14.01 45.03 42.03 0 16.64-6.26 28.89-18.76 36.77l18.2 48.78h-28.33l-14.82-42.78H276.6v42.78h-25.89V83.43h49.89zm402.66-43.71l-12.95 60.6-9.94 45.59h-25.89l28.71-127.58h49.16l28.71 127.58h-25.89L712.2 39.72M198.06 148.14l-.47-52.91-47.47.42.47 52.91-25.89.23-1.13-127.58 25.89-.23.46 52.16 47.47-.42-.46-52.16 25.89-.23 1.13 127.58-25.89.23zm306.37.21V20.77h44.09l22.52 93.06 22.51-93.06h44.09v127.58h-25.89V49.66h-2.82l-24.95 93.06h-25.89l-24.95-93.06h-2.81v98.69h-25.9zM759.97 43.66V20.77h93.81v22.89h-33.77v104.69h-25.89V43.66h-34.15zm110.14 104.69V20.77H896v127.58h-25.89zm117.27-127.5h28.6l-39.65 51.06 46.67 76.34h-28.6l-33.51-55.82-17.02 21.76v34.06H917.9v-36.18l69.48-91.22zm-69.55-.08h25.97v24.65l-25.97 34.53V20.77z" class="st0"/>
  <path fill="#3d01a4" d="M414.55 42.65c-6.94 1.85-13.16 5.53-18.1 10.48h-.02l-17.76-17.79c6.8-6.87 15.13-12.26 24.44-15.59.63-.22 1.27-.44 1.9-.63.97-.32 1.97-.61 3-.88v.05l6.54 24.36z"/>
  <path fill="#0247fe" d="M396.42 53.13c-4.92 4.92-8.6 11.14-10.45 18.08l-24.22-6.48c3-11.28 8.89-21.35 16.91-29.39l17.76 17.79z"/>
  <path fill="#0391ce" d="M385.97 71.23a39.986 39.986 0 000 20.9v.02l-24.22 6.48c-1.46-5.41-2.22-11.09-2.22-16.96 0-5.87.76-11.55 2.22-16.96l24.22 6.48v.04z"/>
  <path fill="#66b032" d="M396.45 110.24l-17.79 17.79a65.29 65.29 0 01-16.91-29.39l24.22-6.48a39.774 39.774 0 0010.48 18.08z"/>
  <path fill="#d0ea2b" d="M414.55 120.72L408 145.14a55.01 55.01 0 01-3-.88c-.63-.19-1.27-.41-1.9-.63a65.563 65.563 0 01-24.44-15.59l17.79-17.79c4.94 4.94 11.15 8.62 18.1 10.47z"/>
  <path fill="#fefe33" d="M441.99 145.14c-3.66.97-7.19 1.66-10.7 2-.66.07-1.34.12-2 .17-.27.02-.54.05-.8.05-.44.05-.88.05-1.32.07-.61.05-1.24.05-1.85.05h-.34c-1.02 0-2.05-.02-3.05-.1-.97-.05-1.92-.1-2.88-.22-.24-.02-.49-.05-.71-.07-.41-.02-.8-.07-1.22-.12-.27-.05-.51-.07-.78-.12-.78-.1-1.58-.24-2.39-.39-.76-.12-1.51-.27-2.27-.44-.05 0-.1-.02-.15-.02-.07-.02-.15-.02-.22-.05-.1-.02-.17-.05-.27-.07-.63-.15-1.29-.32-1.93-.46-.39-.1-.76-.17-1.15-.27l6.55-24.42c3.34.9 6.85 1.36 10.45 1.36 3.61 0 7.12-.46 10.45-1.36l6.58 24.41z"/>
  <path fill="#fabc02" d="M471.45 128.13c-8.55 8.55-17.76 13.86-29.46 17.01l-6.53-24.42c6.94-1.85 13.16-5.53 18.1-10.48l17.89 17.89z"/>
  <path fill="#fb9902" d="M488.43 98.69c-3.12 11.67-8.43 20.88-16.98 29.44l-17.89-17.89c4.95-4.9 8.6-11.11 10.48-18.08l24.39 6.53z"/>
  <path fill="#fd5308" d="M488.43 98.69l-24.39-6.53v-.02c.9-3.34 1.36-6.82 1.36-10.45s-.46-7.12-1.36-10.45v-.02l24.39-6.53c3.14 11.66 3.14 22.33 0 34z"/>
  <path fill="#fe2712" d="M488.43 64.68l-24.39 6.53c-1.85-6.97-5.51-13.13-10.45-18.08l17.86-17.89c8.55 8.56 13.86 17.77 16.98 29.44z"/>
  <path fill="#a7194b" d="M471.45 35.24l-17.86 17.89h-.02c-4.95-4.95-11.16-8.63-18.1-10.48L442 18.23c11.68 3.15 20.89 8.46 29.45 17.01z"/>
  <path fill="#8601af" d="M441.99 18.23l-6.53 24.42c-3.34-.9-6.85-1.36-10.45-1.36-3.61 0-7.12.46-10.45 1.36l-6.55-24.37c.39-.12.76-.22 1.15-.32-.39.1-.76.17-1.15.27 1.19-.32 2.36-.61 3.56-.85.8-.17 1.58-.32 2.39-.46h.02c.8-.15 1.61-.29 2.39-.39.9-.15 1.8-.24 2.7-.32.95-.12 1.9-.17 2.88-.22 1-.07 2.02-.1 3.05-.1h.34c.61 0 1.24 0 1.85.05.61.02 1.22.05 1.83.1 4.24.27 8.51 1 12.97 2.19z"/>
</svg>
